<svg viewBox="0 0 100 100" fill="none" xmlns="http://www.w3.org/2000/svg">
  <path
    d="M20 20L50 10L80 20L90 50L80 80L50 90L20 80L10 50L20 20Z"
    fill="#10b981"
    fill-opacity="0.1"
    stroke="#10b981"
    stroke-width="2"
  />
  <path d="M20 20L80 20L90 50L80 80L20 80L10 50L20 20Z" fill="#34d399" fill-opacity="0.2" />
  <path
    d="M75 35C75 25 60 20 50 20C30 20 20 35 20 50C20 65 30 80 50 80C65 80 75 70 75 55H55V45H85"
    stroke="#ffffff"
    stroke-width="8"
    stroke-linecap="round"
    stroke-linejoin="round"
  />
  <path
    d="M30 65C35 60 45 55 50 55"
    stroke="#34d399"
    stroke-width="3"
    stroke-dasharray="4 4"
  />
</svg>
